<?xml version="1.0" standalone="no"?>
<!DOCTYPE svg PUBLIC "-//W3C//DTD SVG 1.1//EN" "http://www.w3.org/Graphics/SVG/1.1/DTD/svg11.dtd" >
<!--
2013-9-30: Created.
-->
<svg>
<metadata>
Created by iconfont
</metadata>
<defs>

<font id="iconfont" horiz-adv-x="1024" >
  <font-face
    font-family="iconfont"
    font-weight="500"
    font-stretch="normal"
    units-per-em="1024"
    ascent="896"
    descent="-128"
  />
    <missing-glyph />
    
    <glyph glyph-name="x" unicode="x" horiz-adv-x="1001"
d="M281 543q-27 -1 -53 -1h-83q-18 0 -36.5 -6t-32.5 -18.5t-23 -32t-9 -45.5v-76h912v41q0 16 -0.5 30t-0.5 18q0 13 -5 29t-17 29.5t-31.5 22.5t-49.5 9h-133v-97h-438v97zM955 310v-52q0 -23 0.5 -52t0.5 -58t-10.5 -47.5t-26 -30t-33 -16t-31.5 -4.5q-14 -1 -29.5 -0.5
t-29.5 0.5h-32l-45 128h-439l-44 -128h-29h-34q-20 0 -45 1q-25 0 -41 9.5t-25.5 23t-13.5 29.5t-4 30v167h911zM163 247q-12 0 -21 -8.5t-9 -21.5t9 -21.5t21 -8.5q13 0 22 8.5t9 21.5t-9 21.5t-22 8.5zM316 123q-8 -26 -14 -48q-5 -19 -10.5 -37t-7.5 -25t-3 -15t1 -14.5
t9.5 -10.5t21.5 -4h37h67h81h80h64h36q23 0 34 12t2 38q-5 13 -9.5 30.5t-9.5 34.5q-5 19 -11 39h-368zM336 498v228q0 11 2.5 23t10 21.5t20.5 15.5t34 6h188q31 0 51.5 -14.5t20.5 -52.5v-227h-327z" />
    

    
    <glyph glyph-name="radio-select" unicode="&#58983;" d="M512 798.667c-235.643 0-426.667-191.027-426.667-426.667s191.024-426.667 426.667-426.667c235.64 0 426.667 191.027 426.667 426.667s-191.027 426.667-426.667 426.667zM512-12c-212.08 0-384 171.925-384 384 0 212.077 171.92 384 384 384 212.075 0 384-171.923 384-384 0-212.075-171.925-384-384-384zM277.333 372c0 0 0 0 0 0 0-129.603 105.064-234.667 234.667-234.667 129.603 0 234.667 105.064 234.667 234.667 0 0 0 0 0 0 0 129.603-105.064 234.667-234.667 234.667-129.603 0-234.667-105.064-234.667-234.667z"  horiz-adv-x="1024" />

    
    <glyph glyph-name="more" unicode="&#58910;" d="M956.767248 300.019443c0-245.666142-199.139479-444.806645-444.844507-444.806645-245.630327 0-444.691011 199.139479-444.691011 444.806645 0 245.62828 199.059662 444.768783 444.691011 444.768783C757.627768 744.787202 956.767248 545.648746 956.767248 300.019443zM511.92274 703.772067c-222.965118 0-403.676899-180.752714-403.676899-403.753647s180.713828-403.790486 403.676899-403.790486c223.038796 0 403.826302 180.789553 403.826302 403.790486S734.961536 703.772067 511.92274 703.772067zM284.293393 299.998977m-77.511351 0a75.746 75.746 0 1 0 155.022703 0 75.746 75.746 0 1 0-155.022703 0ZM515.999592 300m-77.512375 0a75.747 75.747 0 1 0 155.024749 0 75.747 75.747 0 1 0-155.024749 0ZM740.878293 300m-77.512375 0a75.747 75.747 0 1 0 155.024749 0 75.747 75.747 0 1 0-155.024749 0Z"  horiz-adv-x="1024" />

    
    <glyph glyph-name="camera" unicode="&#59003;" d="M646.024971 406.360264l133.983527 67.056232 0-268.053012-133.983527 66.926272 0-111.688755L243.903497 160.601001 243.903497 518.049019l223.376487 0-44.6315 89.351004L243.903497 607.4000229999999l0 44.6315 245.801219 0 22.25077-44.6315 44.76146-89.351004 89.307002 0L646.023948 406.360264zM958.70846 652.031523l0-536.105001c0-98.642624-79.971379-178.700985-178.700985-178.700985L243.903497-62.77446299999997c-98.642624 0-178.61298 80.057337-178.61298 178.700985L65.290517 652.031523c0 98.730629 79.969333 178.744987 178.61298 178.744987l536.105001 0C878.73708 830.77651 958.70846 750.763175 958.70846 652.031523zM869.44546 607.4000229999999c0 73.994248-60.119239 134.069485-134.113487 134.069485L288.667004 741.469508c-74.082252 0-134.071532-60.075237-134.071532-134.069485l0-446.797999c0-73.994248 59.989279-133.983527 134.071532-133.983527l446.664969 0c73.994248 0 134.113487 59.989279 134.113487 133.983527L869.44546 607.4000229999999z"  horiz-adv-x="1024" />

    
    <glyph glyph-name="jump" unicode="&#58916;" d="M629.589139 265.89306799999997c-114.63383 6.340405-224.194108-11.68718-329.024665-56.715723-105.576547-45.348837-191.469799-115.373681-259.510452-208.416773 1.348718 8.138354 2.608407 16.293081 4.071735 24.409946 1.470491 8.157797 2.966565 16.319687 4.757351 24.410969 22.122857 99.926874 57.634652 194.522322 113.073288 280.998859 56.836473 88.658226 129.898489 159.665443 225.938845 205.209732 62.092174 29.445636 127.728056 45.062312 196.156542 49.4042 14.498202 0.919952 29.027104 1.3743 44.119847 2.070148 0 70.572312 0 140.924613 0 211.276914 0.884137 0.685615 1.768273 1.370207 2.65241 2.055822C755.651252 675.777343 879.477442 550.956499 1003.071342 426.371016 878.640378 302.14880700000003 754.280022 177.99822900000004 629.589139 53.51610000000005 629.589139 123.83156199999996 629.589139 194.32815000000005 629.589139 265.89306799999997z"  horiz-adv-x="1024" />

    
    <glyph glyph-name="item" unicode="&#58954;" d="M416.011999 847.942007L128.047994 847.942007c-35.323585 0-63.992001-28.668416-63.992001-63.992001l0-287.964004c0-35.323585 28.668416-63.992001 63.992001-63.992001l287.964004 0c35.323585 0 63.992001 28.668416 63.992001 63.992001l0 287.964004C480.004 819.273591 451.335583 847.942007 416.011999 847.942007zM895.952006 847.942007l-287.964004 0c-35.323585 0-63.992001-28.668416-63.992001-63.992001l0-287.964004c0-35.323585 28.668416-63.992001 63.992001-63.992001L895.952006 431.994001c35.323585 0 63.992001 28.668416 63.992001 63.992001l0 287.964004C959.944007 819.273591 931.275591 847.942007 895.952006 847.942007zM416.011999 368.00199999999995L128.047994 368.00199999999995c-35.323585 0-63.992001-28.668416-63.992001-63.992001l0-319.960005c0-35.323585 28.668416-63.992001 63.992001-63.992001l287.964004 0c35.323585 0 63.992001 28.668416 63.992001 63.992001l0 319.960005C480.004 339.333583 451.335583 368.00199999999995 416.011999 368.00199999999995zM895.952006 368.00199999999995l-287.964004 0c-35.323585 0-63.992001-28.668416-63.992001-63.992001l0-319.960005c0-35.323585 28.668416-63.992001 63.992001-63.992001L895.952006-79.94200699999999c35.323585 0 63.992001 28.668416 63.992001 63.992001l0 319.960005C959.944007 339.333583 931.275591 368.00199999999995 895.952006 368.00199999999995z"  horiz-adv-x="1024" />

    
    <glyph glyph-name="praise" unicode="&#58892;" d="M884.875894 472.856747L646.970506 472.856747c92.185562 340.464205-63.516616 357.853247-63.516616 357.853247-65.993017 0-52.312436-52.182476-57.3031-60.881602 0-166.502152-176.849824-296.971645-176.849824-296.971645l0-472.171899c0-46.607504 63.516616-63.393819 88.433098-63.393819l357.452111 0c33.641191 0 61.036122 88.224344 61.036122 88.224344 88.434122 300.70569 88.434122 390.177444 88.434122 390.177444C944.657442 477.820805 884.875894 472.856747 884.875894 472.856747L884.875894 472.856747 884.875894 472.856747zM884.875894 472.856747M251.671415 472.700181L109.214912 472.700181c-29.420053 0-29.873378-28.89612-29.873378-28.89612l29.420053-476.202703c0-30.309306 30.361495-30.309306 30.361495-30.309306L262.420223-62.70794799999999c25.686009 0 25.458835 20.049638 25.458835 20.049638L287.879058 436.588729C287.879058 473.162716 251.671415 472.700181 251.671415 472.700181L251.671415 472.700181 251.671415 472.700181zM251.671415 472.700181"  horiz-adv-x="1024" />

    
    <glyph glyph-name="search" unicode="&#58909;" d="M985.021152-55.806578 711.021508 218.204444C778.343819 289.088 819.872708 384.615822 819.872708 490.019556 819.872708 708.279467 642.936885 885.215289 424.688352 885.215289 206.428441 885.215289 29.492618 708.279467 29.492618 490.019556 29.492618 271.805156 206.428441 94.8352 424.688352 94.8352 511.512174 94.8352 591.600352 123.177244 656.806397 170.679467L934.151108-106.676622C948.236797-120.728178 970.912708-120.728178 984.987019-106.676622 999.072708-92.5568 999.072708-69.892267 985.021152-55.806578L985.021152-55.806578ZM424.688352 159.176533C246.125508 159.176533 101.343285 303.958756 101.343285 482.5216 101.343285 661.1072 246.125508 805.855289 424.688352 805.855289 603.273952 805.855289 748.022041 661.073067 748.022041 482.5216 748.022041 303.992889 603.273952 159.176533 424.688352 159.176533L424.688352 159.176533Z"  horiz-adv-x="1024" />

    
    <glyph glyph-name="sleft" unicode="&#58997;" d="M767.638773-20.96421799999996c0.550539-44.381813-39.513946-57.942667-74.30431-30.036084L218.570529 340.36213c-34.640961 27.791973-34.526351 72.842005 0.416486 100.788497L693.334463 820.090123c34.828226 27.833929 73.753771 14.703887 74.30431-29.909194L767.638773-20.96421799999996z"  horiz-adv-x="1024" />

    
    <glyph glyph-name="sright" unicode="&#58999;" d="M254.596024 789.54034c-0.550539 44.381813 39.513946 57.942667 74.30431 30.036084L803.664268 428.212968c34.640961-27.791973 34.526351-72.842005-0.415462-100.788497L328.901357-51.51502500000004c-34.828226-27.832905-73.753771-14.703887-74.30431 29.910217L254.597047 789.54034z"  horiz-adv-x="1024" />

    
    <glyph glyph-name="delete" unicode="&#58975;" d="M505.148739 879.554758c-277.100263 0-502.563091-225.462828-502.563091-502.564098 0-277.095229 225.525254-502.559064 502.563091-502.559064 277.03381 0 502.559064 225.463835 502.559064 502.559064C1007.707803 654.09193 782.243968 879.554758 505.148739 879.554758L505.148739 879.554758zM505.148739-77.70271100000002c-250.778613 0-454.692364 203.981212-454.692364 454.693371 0 250.716187 203.913751 454.693371 454.692364 454.693371 250.711153 0 454.694378-203.976177 454.694378-454.693371C959.843117 126.27850000000001 755.927352-77.70271100000002 505.148739-77.70271100000002L505.148739-77.70271100000002zM505.148739-77.70271100000002M708.181477 546.354602l-33.861109 33.797676L505.211165 410.851769 335.909649 580.152278l-33.861109-33.859095 169.301516-169.302523-169.114238-169.363942 33.860102-33.793648 169.114238 169.301516 169.172636-169.175657 33.861109 33.861109L539.067239 376.99066000000005 708.181477 546.354602zM708.181477 546.354602"  horiz-adv-x="1024" />

    
    <glyph glyph-name="filter" unicode="&#58922;" d="M381.616538 381.341491L13.42039 802.208947C-4.566579 822.735898-4.462362 848.208717 13.669043 868.663296 29.025101 886.034714 54.317107 896 83.065139 896L940.975949 895.909222C969.744051 895.909222 995.036083 885.949696 1010.310502 868.647194 1028.462003 848.232858 1028.573747 822.754304 1010.579251 802.128512L641.561805 380.524442 641.561805 53.43651799999998 381.616538-128 381.616538 381.341491 381.616538 381.341491ZM971.381632 830.807424C974.551296 834.440986 974.551296 836.09687 971.325107 839.724672 965.568486 846.243712 954.506035 849.9830019999999 940.972186 849.9830019999999L83.060122 850.072627C69.540045 850.072627 58.471347 846.321843 52.666982 839.755699 49.506099 836.1888 49.487258 834.457062 52.586598 830.920038L431.805005 397.460352 431.805005-35.21100799999999 591.375846 76.16407000000004 591.375846 396.646784 971.381632 830.807424Z"  horiz-adv-x="1025" />

    
    <glyph glyph-name="newlabel" unicode="&#58889;" d="M141.980665 597.681684l0-135.633097L65.033156 385.101077l76.948533-76.948533L141.981688 172.519448l815.962873 0L957.944562 597.681684 141.980665 597.681684zM427.581332 284.72701900000004l-47.376007 0-42.638099 76.984349c-11.843746 21.319561-24.87248 47.079248-34.643008 70.471005l-0.88823-0.296759c1.183965-26.352181 1.77646-54.481845 1.77646-87.052658l0-60.106959L262.359336 284.725996 262.359336 484.296287l52.705386 0 41.453111-73.135694c11.843746-21.022803 23.687492-45.895283 32.570813-68.39881l0.88823 0c-2.961448 26.353205-3.849678 53.29788-3.849678 83.20298l0 58.3305 41.454134 0L427.581332 284.72701900000004zM593.982176 284.72701900000004L466.660372 284.72701900000004 466.660372 484.296287l123.17639 0 0-37.011962-77.873602 0 0-41.453111 73.431429 0 0-36.715203-73.431429 0 0-47.376007 82.017992 0L593.981153 284.72701900000004zM814.863842 284.72701900000004l-48.855708 0-16.877389 85.86767c-3.849678 20.134573-7.105838 38.788421-9.474792 61.588707l-0.592494 0c-3.552919-22.503527-6.810103-41.454134-11.546987-61.588707l-18.950607-85.86767-49.448202 0-47.376007 199.568245 48.264237 0 15.10093-82.313727c4.441149-23.687492 8.587586-49.448202 11.843746-69.582775l0.591471 0c3.258207 21.614274 7.994068 45.599548 13.028735 70.174246l16.876366 81.722256 47.968501 0 15.989159-84.09121c4.441149-23.391756 7.697309-44.710294 10.658757-66.918086l0.592494 0c2.961448 22.206768 7.401574 45.598524 11.546987 69.286016l16.285918 81.722256 45.895283 0L814.863842 284.72701900000004z"  horiz-adv-x="1024" />

    
    <glyph glyph-name="select" unicode="&#58932;" d="M511.997961 831.804133c-247.312722 0-447.801591-200.47208-447.801591-447.80179 0-247.313721 200.490068-447.803789 447.801591-447.803789s447.80279 200.490068 447.80279 447.803789C959.799552 631.332053 759.309684 831.804133 511.997961 831.804133zM512.248192-6.45292900000004c-215.216083 0-389.686592 174.487497-389.686592 389.70558 0 215.216083 174.470509 389.70458 389.686592 389.70458 215.23607 0 389.686592-174.488497 389.686592-389.70458C901.934784 168.033769 727.483262-6.45292900000004 512.248192-6.45292900000004zM715.102656 557.0316290000001L465.927997 279.967678l-139.141662 122.106212c-14.597903 13.344552-37.25694 12.342632-50.618481-2.25627-13.345552-14.598902-12.342632-37.25694 2.25627-50.61948l166.277264-145.912471c14.597903-13.36254 37.257939-12.340633 50.620479 2.25627l272.639351 303.163455c13.345552 14.579915 12.323445 37.25694-2.274258 50.602492C751.124234 572.650439 728.448208 571.6473189999999 715.102656 557.0316290000001z"  horiz-adv-x="1024" />

    
    <glyph glyph-name="speaker" unicode="&#58920;" d="M777.015373 375.619727M633.304971 512.208858M372.320641 434.739317M207.28206 544.6048410000001M554.53621 20.50916600000005M381.89475 118.00257499999998M512 890.887631c-281.358458 0-509.443816-228.085358-509.443816-509.443816s228.085358-509.443816 509.443816-509.443816 509.443816 228.085358 509.443816 509.443816S793.358458 890.887631 512 890.887631zM186.080137 270.553985l-81.992373 0 0 280.099966 81.992373 0L186.080137 270.553985zM436.928314 102.34168299999999l-218.66296 109.316716 0 381.652928 218.66296 100.219123L436.928314 102.34168299999999zM565.573469 229.27321199999994l-58.799876 53.789327c40.976332 22.494015 62.728081 70.862459 49.701264 117.851246-7.33713 26.44462-24.390916 47.510104-46.164047 60.642813l43.623645 63.837916c36.292624-23.117151 64.63211-59.039152 77.056153-103.785868C651.418701 348.05712600000004 623.100598 272.598525 565.573469 229.27321199999994zM680.883294 123.88368300000002l-57.444655 52.529817c74.483168 62.992812 109.867561 165.709573 82.055502 265.88695-17.494666 63.023358-57.028212 114.027915-107.886149 147.081654l43.602263 63.870498c65.449722-43.006617 116.220094-108.911474 138.800655-190.278674C815.203881 336.18291 772.544469 206.23649799999998 680.883294 123.88368300000002zM787.307312 26.618349999999964l-57.104577 52.201957c99.370965 101.680236 143.554618 251.982448 102.760544 398.840098-26.284763 94.704567-83.580761 172.373674-157.800217 225.295497l43.613463 63.892898c88.790877-62.845173 157.344064-155.513345 188.701486-268.502699C955.622452 324.850374 904.003922 147.33174799999995 787.307312 26.618349999999964z"  horiz-adv-x="1024" />

    
    <glyph glyph-name="save" unicode="&#58978;" d="M941.788603 681.017694c-26.348088 27.053146-69.072145 27.053146-95.435583 0L411.651524 234.23299799999995 181.648107 470.640266c-26.373671 27.078729-69.110007 27.078729-95.461165 0-26.348088-27.109428-26.348088-71.037916 0-98.147344l277.740652-285.448194 0 0c4.137227-4.264117 8.617261-7.860015 13.459546-10.739599 25.885554-15.708773 59.787688-12.187577 82.028225 10.739599l0 0 482.373239 495.824599C968.166367 609.998197 968.166367 653.908266 941.788603 681.017694L941.788603 681.017694zM941.788603 681.017694"  horiz-adv-x="1024" />

    
    <glyph glyph-name="plus" unicode="&#58993;" d="M959.855074 446.36335L570.358129 446.36335 570.358129 835.79992 453.53954 835.79992 453.53954 446.36335 64.044642 446.36335 64.044642 329.48643200000004 453.53954 329.48643200000004 453.53954-59.951160999999956 570.358129-59.951160999999956 570.358129 329.48643200000004 959.855074 329.48643200000004Z"  horiz-adv-x="1024" />

    
    <glyph glyph-name="tel" unicode="&#58963;" d="M77.874568 319.778765l269.779753 181.719365L347.654321 586.163245c0 0-54.179894-2.275556-54.179894-80.150123s-196.420176-53.060176-215.599859-53.060176-27.089947 13.544974-27.089947 96.620811 59.814603 173.122822 461.107019 173.122822 460.529101-109.479506 460.529101-173.122822 0-96.620811-27.667866-96.620811-216.719577-28.209665-216.719577 51.940459-55.299612 85.784832-55.299612 85.784832l0-88.060388 272.019189-180.599647 0-276.53418-866.878307 0L77.874568 319.778765zM511.602681 417.988854c-76.68261 0-138.845009-62.162399-138.845009-138.845009 0-76.68261 62.162399-138.845009 138.845009-138.845009 76.68261 0 138.845009 62.162399 138.845009 138.845009C650.44769 355.790335 588.285291 417.988854 511.602681 417.988854zM618.553792 570.4510760000001c0 11.305538-9.174462 20.48-20.48 20.48L425.13157 590.9310760000001c-11.305538 0-20.48-9.174462-20.48-20.48l0-41.682399c0-11.305538 9.174462-20.48 20.48-20.48l172.942222 0c11.305538 0 20.48 9.174462 20.48 20.48L618.553792 570.4510760000001z"  horiz-adv-x="1024" />

    
    <glyph glyph-name="pic" unicode="&#59051;" d="M834.800917 743.750457L187.951673 743.750457c-67.957765 0-122.958426-55.096852-122.958426-122.959449l0-475.033064c0-67.958788 55.095829-122.958426 122.958426-122.958426l646.849244 0c67.957765 0 122.959449 55.094806 122.959449 122.958426L957.760366 620.7910079999999C957.760366 688.655651 902.758682 743.750457 834.800917 743.750457L834.800917 743.750457zM316.860624 586.14186c34.555004 0 62.584384-28.028357 62.584384-62.58336s-28.02938-62.58336-62.584384-62.58336c-34.55398 0-62.581314 28.028357-62.581314 62.58336S282.306644 586.14186 316.860624 586.14186L316.860624 586.14186zM895.753127 249.42193199999997c-8.06263-6.238075-19.677155-4.606925-25.821085 3.456728l-137.931442 182.182272c-0.384763 0.575098-38.874379 49.91176-85.619006 45.207621-38.011732-4.318352-75.349105-44.825928-107.984387-117.198236-34.555004-76.885088-68.438719-117.005854-106.544595-126.414131-43.192731-10.462283-80.436984 18.814508-119.886461 50.008974l-4.990664 3.934612c-46.169529 36.1882-68.246337 27.932166-157.128667-59.127655-3.552919-3.551896-8.256034-5.279237-12.862959-5.279237-4.799306 0-9.598612 1.823532-13.149485 5.566786-7.102768 7.296173-7.008624 19.004843 0.287549 26.109658 80.723509 79.091336 130.060171 121.036657 205.601658 61.717643l5.086855-3.933589c33.689287-26.588565 62.774719-49.52802 88.306208-43.193755 25.435299 6.239098 52.888558 41.75294 81.684394 105.680924 38.874379 86.291318 85.139076 133.035946 137.740084 138.795113 67.670216 7.199982 116.910687-56.919361 118.925576-59.703777l137.742131-181.987844C905.35174 267.08522000000005 903.814734 255.564839 895.753127 249.42193199999997L895.753127 249.42193199999997z"  horiz-adv-x="1024" />

    
    <glyph glyph-name="feedback" unicode="&#59124;" d="M920.603 480.782c-12.561 0-22.78-10.212-22.886-22.78v-405.91c0-25.237-20.545-45.779-45.779-45.779h-686.34c-25.237 0-45.779 20.43-45.779 45.779v662.154c0 25.237 20.545 45.779 45.779 45.779h442.073c12.561 0 22.886 10.212 22.886 22.886s-10.212 22.886-22.886 22.886h-446.64c-47.995 0-86.854-38.861-86.854-86.854v-671.315c0-47.995 38.861-86.978 86.854-86.978h695.504c47.995 0 86.854 38.977 86.854 86.978v410.484c0 12.442-10.212 22.653-22.78 22.653v0 0M495.328 187.682l435.145 435.145c25.947 25.829 23.482 70.425-5.283 99.196l-41.090 41.206c-28.764 28.867-73.359 31.231-99.196 5.401l-435.145-435.251 145.551-145.667M817.323 736.106c9.863 9.863 26.755 8.927 37.679-1.984l41.090-41.090c10.918-11.037 11.849-27.811 1.984-37.679l-48.254-48.254-80.172 81.342 47.652 47.652M815.671 572.927l-323.619-323.619-80.759 80.759 324.205 324.205 80.172-81.342M349.424 332.524l-44.731-163.865c-1.984-7.153 0.11-14.796 5.283-20.077 5.283-5.17 12.909-7.153 20.077-5.283l163.984 44.731-33.573 33.573-106.461-29.11 28.989 106.461-33.573 33.573M349.424 332.524v0z"  horiz-adv-x="1024" />

    
    <glyph glyph-name="sort" unicode="&#58968;" d="M923.695127 409.802582H632.13661a97.506039 97.506039 0 0 0-97.212828 97.239484V798.733861a97.506039 97.506039 0 0 0 97.212828 97.239483h291.558517A97.506039 97.506039 0 0 0 1020.907955 798.733861v-291.691795a97.506039 97.506039 0 0 0-97.212828-97.239484zM389.144523-124.96126600000002H97.55935a97.506039 97.506039 0 0 0-97.186172 97.239483V263.970012a97.479384 97.479384 0 0 0 97.186172 97.212828h291.585173a97.479384 97.479384 0 0 0 97.186173-97.212828v-291.691795a97.506039 97.506039 0 0 0-97.186173-97.239483z m0 534.763848H97.55935a97.506039 97.506039 0 0 0-97.186172 97.239484V798.733861A97.506039 97.506039 0 0 0 97.55935 895.973344h291.585173a97.506039 97.506039 0 0 0 97.186173-97.239483v-291.691795a97.506039 97.506039 0 0 0-97.186173-97.239484z m369.259475-48.619742c118.350687 0 214.257393-95.960017 214.257393-214.337359a212.977926 212.977926 0 0 0-34.092461-115.285298l81.032903-81.059558a45.92753 45.92753 0 0 0-64.932945-64.9596l-81.032903 81.059558a212.817993 212.817993 0 0 0-115.231987-34.119117 214.310704 214.310704 0 0 0-214.284048 214.364015 214.310704 214.310704 0 0 0 214.284048 214.337359z m0-367.446897a153.082882 153.082882 0 0 1 153.056227 153.109538 153.082882 153.082882 0 0 1-153.056227 153.109538 153.082882 153.082882 0 0 1-153.056226-153.109538 153.082882 153.082882 0 0 1 153.056226-153.109538z"  horiz-adv-x="1033" />

    
    <glyph glyph-name="radio-unselect" unicode="&#58897;" d="M512 823.596c-243.735 0-441.32-197.588-441.32-441.32S268.264-59.04600000000005 512-59.04600000000005c243.733 0 441.32 197.588 441.32 441.32S755.734 823.596 512 823.596z m0-838.509c-219.364 0-397.188 177.83-397.188 397.188 0 219.361 177.824 397.188 397.188 397.188 219.358 0 397.188-177.827 397.188-397.188 0-219.358-177.83-397.188-397.188-397.188z"  horiz-adv-x="1024" />

    
    <glyph glyph-name="loading" unicode="&#59136;" d="M634.88 757.76c0-66.56-56.32-122.88-122.88-122.88-66.56 0-122.88 56.32-122.88 122.88S445.44 880.64 512 880.64c66.56 0 122.88-56.32 122.88-122.88z m-51.2-752.64c0-40.96-35.84-76.8-76.8-76.8s-76.8 35.84-76.8 76.8 35.84 76.8 76.8 76.8c46.08 0 76.8-35.84 76.8-76.8z m-399.36 373.76c0-25.6-20.48-51.2-51.2-51.2s-51.2 20.48-51.2 51.2 20.48 51.2 51.2 51.2 51.2-20.48 51.2-51.2z m798.72 0c0-56.32-46.08-102.4-102.4-102.4s-102.4 46.08-102.4 102.4 46.08 102.4 102.4 102.4c61.44 0 102.4-46.08 102.4-102.4zM271.36 670.72c15.36-15.36 15.36-40.96 0-51.2-15.36-15.36-40.96-15.36-51.2 0-15.36 15.36-15.36 40.96-5.12 51.2 15.36 15.36 40.96 15.36 56.32 0z m563.2-491.52c35.84-35.84 35.84-92.16 0-122.88-35.84-35.84-92.16-35.84-122.88 0-35.84 35.84-35.84 92.16 0 122.88 35.84 30.72 92.16 30.72 122.88 0z m-547.84-20.48c25.6-25.6 25.6-66.56 0-87.04-25.6-25.6-66.56-25.6-87.04 0-25.6 25.6-25.6 66.56 0 87.04 25.6 25.6 61.44 25.6 87.04 0zM855.04 727.04c46.08-46.08 46.08-117.76 0-158.72-46.08-46.08-117.76-46.08-158.72 0-46.08 46.08-46.08 117.76 0 158.72 40.96 40.96 112.64 40.96 158.72 0z"  horiz-adv-x="1024" />

    
    <glyph glyph-name="file" unicode="&#59425;" d="M866.987 636.587c0 6.827 0 6.827 0 0v13.653l-163.84 143.36c-6.827 6.827-13.653 6.827-20.48 6.827h-471.04c-34.133 6.827-54.613-6.827-54.613-40.96v-750.933c0-34.133 13.653-47.787 47.787-47.787h607.573c34.133 0 47.787 13.653 47.787 47.787l6.827 628.053zM716.8 165.54700000000003h-409.6c-13.653 0-27.307 13.653-27.307 27.307s13.653 27.307 27.307 27.307h409.6c13.653 0 27.307-13.653 27.307-27.307 0-20.48-13.653-27.307-27.307-27.307zM716.8 308.90700000000004h-409.6c-13.653 0-27.307 13.653-27.307 27.307s13.653 27.307 27.307 27.307h409.6c13.653 0 27.307-13.653 27.307-27.307s-13.653-27.307-27.307-27.307zM716.8 465.92h-409.6c-13.653 0-27.307 13.653-27.307 27.307s13.653 27.307 27.307 27.307h409.6c13.653 0 27.307-13.653 27.307-27.307s-13.653-27.307-27.307-27.307zM703.147 663.893v61.44l61.44-54.613h-61.44v-6.827z"  horiz-adv-x="1024" />

    
    <glyph glyph-name="new" unicode="&#58941;" d="M174.933333 573.866667c-17.066667 0-32-14.933333-32-32v-91.733334l-68.266666-49.066666c-14.933333-10.666667-14.933333-27.733333 0-38.4l68.266666-49.066667v-85.333333c0-17.066667 14.933333-32 32-32h753.066667c17.066667 0 32 14.933333 32 32V539.733333c0 17.066667-14.933333 32-32 32H174.933333z m637.866667-256l44.8 170.666666h25.6l-57.6-202.666666h-25.6l-46.933333 168.533333-46.933334-168.533333h-25.6l-57.6 202.666666h25.6l44.8-170.666666h2.133334l46.933333 170.666666H768l44.8-170.666666z m-352 168.533333h142.933333v-19.2h-119.466666v-68.266667H597.333333v-19.2h-113.066666v-74.666666h125.866666v-19.2h-147.2v200.533333z m-64-164.266667v164.266667h23.466667v-202.666667h-23.466667l-115.2 166.4v-166.4h-23.466667v202.666667h23.466667l115.2-164.266667z"  horiz-adv-x="1024" />

    
    <glyph glyph-name="collected" unicode="&#58883;" d="M1059.237 504.859l-355.02 69.345L529.618 896 355.056 574.204 0 504.859l247.155-268.164-44.84-364.66 327.304 156.061 327.375-156.06-44.912 364.66z"  horiz-adv-x="1060" />

    
    <glyph glyph-name="sup" unicode="&#59002;" d="M883.307 63.940000000000055h-743.16c-40.46-0.195-64.659 49.122-42.598 86.817l372.516 527.156c20.298 34.682 66.072 34.903 86.036 0.415l370.643-527.157c21.697-37.483-2.977-87.036-43.437-87.231z"  horiz-adv-x="1024" />

    
    <glyph glyph-name="sdown" unicode="&#59004;" d="M140.851 703.252l744.511-1.22c38.065-0.41 61.525-49.915 42.599-86.817l-372.203-524.32c-20.298-34.682-66.072-34.902-86.036-0.415L97.412 616.02c-21.697 37.483 2.979 87.037 43.439 87.232z"  horiz-adv-x="1024" />

    
    <glyph glyph-name="reply" unicode="&#58915;" d="M224 471.466667m-78.933333 0a78.933333 78.933333 0 1 1 157.866666 0 78.933333 78.933333 0 1 1-157.866666 0ZM778.666667 471.466667m-78.933334 0a78.933333 78.933333 0 1 1 157.866667 0 78.933333 78.933333 0 1 1-157.866667 0ZM501.333333 471.466667m-78.933333 0a78.933333 78.933333 0 1 1 157.866667 0 78.933333 78.933333 0 1 1-157.866667 0ZM960 772.266667v-631.466667H644.266667L512-4.266666999999984l-132.266667 145.066667H64V772.266667h896m0 64H64c-36.266667 0-64-27.733333-64-64v-631.466667c0-36.266667 27.733333-64 64-64h288l113.066667-123.733333c12.8-12.8 29.866667-21.333333 46.933333-21.333334s34.133333 8.533333 46.933333 21.333334l113.066667 123.733333H960c36.266667 0 64 27.733333 64 64V772.266667c0 34.133333-27.733333 64-64 64z"  horiz-adv-x="1024" />

    
    <glyph glyph-name="trash" unicode="&#58887;" d="M512-128c-282.482759 0-512 229.517241-512 512s229.517241 512 512 512 512-229.517241 512-512-229.517241-512-512-512z m0 988.689655c-261.296552 0-476.689655-215.393103-476.689655-476.689655s215.393103-476.689655 476.689655-476.689655 476.689655 215.393103 476.689655 476.689655-215.393103 476.689655-476.689655 476.689655zM621.462069 161.54482800000005h-218.924138c-28.248276 0-49.434483 24.717241-49.434483 52.965517v335.448276h317.793104v-335.448276c0-31.77931-21.186207-52.965517-49.434483-52.965517z m-233.048276 353.103448v-300.137931c0-10.593103 7.062069-17.655172 14.124138-17.655173h218.924138c7.062069 0 14.124138 7.062069 14.124138 17.655173v300.137931h-247.172414zM420.193103 461.682759h35.310345v-211.862069h-35.310345zM561.434483 461.682759h35.310345v-211.862069h-35.310345zM490.813793 461.682759h35.310345v-211.862069h-35.310345zM706.206897 514.648276h-388.413794c-10.593103 0-17.655172 7.062069-17.655172 17.655172s7.062069 17.655172 17.655172 17.655173h388.413794c10.593103 0 17.655172-7.062069 17.655172-17.655173s-7.062069-17.655172-17.655172-17.655172zM561.434483 518.17931h-98.868966V574.675862c0 17.655172 14.124138 31.77931 31.779311 31.77931h35.310344c17.655172 0 31.77931-14.124138 31.779311-31.77931v-56.496552z m-70.62069 28.248276h42.372414v28.248276c0 3.531034-3.531034 3.531034-3.531035 3.531035h-35.310344c-3.531034 0-3.531034-3.531034-3.531035-3.531035v-28.248276z"  horiz-adv-x="1024" />

    
    <glyph glyph-name="new1" unicode="&#58987;" d="M1194.666667 896h-682.666667c-281.6 0-512-230.4-512-512s230.4-512 512-512h682.666667c281.6 0 512 230.4 512 512s-230.4 512-512 512z m-571.733334-699.733333h-76.8l-162.133333 256v-256h-76.8v384h76.8l162.133333-256v256h76.8v-384z m324.266667 0h-256v384h256v-59.733334h-170.666667v-93.866666h145.066667v-59.733334h-145.066667v-110.933333h170.666667v-59.733333z m409.6 0h-76.8l-76.8 256-76.8-256h-76.8l-93.866667 384h85.333334l51.2-264.533334 68.266666 264.533334h68.266667l68.266667-264.533334 51.2 264.533334h85.333333l-76.8-384z"  horiz-adv-x="1706" />

    
    <glyph glyph-name="right" unicode="&#58880;" d="M632.009 375.537l-383.436-372.786 91.747-75.264 446.921 451.587-473.978 444.55-76.432-84.673z"  horiz-adv-x="1024" />

    
    <glyph glyph-name="left" unicode="&#58881;" d="M391.991 392.463l383.436 372.786-91.747 75.264-446.921-451.587 473.978-444.55 76.432 84.673z"  horiz-adv-x="1024" />

    
    <glyph glyph-name="cup" unicode="&#59281;" d="M1023.60064 171.28448000000003L511.80032 657.49504 0 171.28448000000003z"  horiz-adv-x="1024" />

    
    <glyph glyph-name="cdown" unicode="&#59282;" d="M0 657.49504l511.80032-486.21056L1023.60064 657.49504z"  horiz-adv-x="1024" />

    
    <glyph glyph-name="calendar" unicode="&#58905;" d="M197.632 493.056h175.104v-175.104H197.632V493.056zM432.64 493.056h175.104v-175.104H432.64V493.056zM662.016 493.056h175.104v-175.104h-175.104V493.056zM197.632 232.96000000000004h175.104v-175.104H197.632v175.104zM432.64 232.96000000000004h175.104v-175.104H432.64v175.104zM894.464 781.312h-135.168v-53.76c0-40.448-48.128-83.456-88.576-83.456h-4.096c-40.448 0-88.576 43.008-88.576 83.456V781.312H447.488v-53.76c0-40.448-48.128-83.456-88.576-83.456h-4.096c-40.448 0-89.088 43.008-89.088 83.456V781.312H135.168c-59.392 0-102.4-37.888-102.4-97.28v-712.704c0-59.392 22.528-97.28 81.92-97.28h800.256c59.392 0 81.92 37.888 81.92 97.28V684.032c0 59.392-43.008 97.28-102.4 97.28z m1.536-786.944c0-10.24-8.192-18.432-18.432-18.432H152.576c-10.24 0-18.432 8.192-18.432 18.432V557.056c0 10.24 8.192 18.432 18.432 18.432h724.992c10.24 0 18.432-8.192 18.432-18.432v-562.688zM354.816 674.304h3.072c30.208 0 54.784 24.576 54.784 54.784V841.216C413.184 871.424 388.096 896 357.888 896h-3.072c-30.208 0-54.784-24.576-54.784-54.784v-112.128c0-30.208 24.576-54.784 54.784-54.784zM666.112 674.304h3.072c30.208 0 54.784 24.576 54.784 54.784V841.216c0 30.208-24.576 54.784-54.784 54.784h-3.072c-30.208 0-54.784-24.576-54.784-54.784v-112.128c-0.512-30.208 24.064-54.784 54.784-54.784z"  horiz-adv-x="1024" />

    
    <glyph glyph-name="ziyuan" unicode="&#58921;" d="M527.654415 724.587408c-198.456132 0-359.315636-160.859503-359.315635-359.245548S329.198283 6.006199000000038 527.654415 6.006199000000038 886.919989 166.86570300000005 886.919989 365.34186 726.060485 724.587408 527.654415 724.587408z m-53.846782-556.800563l-19.023594-20.685655L281.459075 306.268595l40.630391 44.254886 130.061307-119.398081L726.901528 505.85613l42.482689-42.482688z"  horiz-adv-x="1025" />

    
    <glyph glyph-name="collect" unicode="&#58882;" d="M512.001787 739.624149l89.335846-180.989593c17.594547-35.778548 57.494147-64.714942 96.941423-70.515319l199.880731-29.008029-144.641036-141.028592c-28.491235-27.848567-43.700341-74.642511-36.99634-113.959821l34.161646-199.04465-178.737188 93.978809c-21.852729 11.472836-44.666388 13.922749-59.945083 13.922749-15.277671 0-38.092354-2.450936-59.879588-13.922749l-178.805752-93.978809 34.16267 199.04465c6.707071 39.31731-8.508176 86.111254-36.99634 113.959821l-144.638989 141.028592 199.878684 29.008029c39.44523 5.800378 79.345852 34.736772 96.941423 70.515319L512.001787 739.624149M512.001787 871.439473c-5.28563 0-10.569213-4.05965-14.635004-12.180998l-133.938787-271.488994c-7.992405-16.243718-29.261821-31.715827-47.181795-34.293659l-299.5934-43.572421c-17.983422-2.578855-22.04512-15.084257-9.023947-27.780003l216.703669-211.289096c13.021173-12.697792 21.14252-37.706549 18.049941-55.563075l-51.179021-298.366397c-2.192027-12.89223 2.771246-20.563301 11.793146-20.563301 3.418007 0 7.413186 1.097037 11.79417 3.41596l268.009586 140.901696c7.993428 4.191663 18.63223 6.320242 29.201443 6.320242 10.567167 0 21.204945-2.128579 29.195303-6.320242l268.012656-140.901696c4.382007-2.318923 8.379233-3.41596 11.795193-3.41596 9.023947 0 13.986197 7.671071 11.793146 20.563301l-51.180045 298.366397c-3.091556 17.856526 5.030815 42.865283 18.050964 55.563075l216.702645 211.289096c13.019126 12.695746 8.957429 25.202171-9.023947 27.780003l-299.595447 43.572421c-17.918951 2.577832-39.187344 18.049941-47.177702 34.293659L526.63065 859.258475C522.569977 867.379823 517.287417 871.439473 512.001787 871.439473L512.001787 871.439473z"  horiz-adv-x="1025" />

    


  </font>
</defs>
</svg>
